<mxfile host="app.diagrams.net" modified="2024-06-19T13:57:11.754Z" agent="Mozilla/5.0 (X11; Ubuntu; Linux x86_64; rv:126.0) Gecko/20100101 Firefox/126.0" version="24.4.8" etag="faZKLRcVar8F5mSZtP3L" type="github">
  <diagram name="Page-1" id="v-8ScTUg_AYMCvuHKvar">
    <mxGraphModel>
      <root>
        <mxCell id="0" />
        <mxCell id="1" parent="0" />
      </root>
    </mxGraphModel>
  </diagram>
</mxfile>
